# xmcd
#
# Track frame offsets: 
#        150
#        23670
#        52442
#        82692
#        110270
#        161567
#        197920
#        213785
#        243075
#        262427
#        287802
#
# Disc length: 4361 seconds
#
# Revision: 2
# Processed by: cddbd v1.4PL0 Copyright (c) Steve Scherf et al.
# Submitted via: ExactAudioCopy v0.90b4
#
DISCID=9911070b
DTITLE=John Lee Hooker - Endless Boogie
DYEAR=1971
DGENRE=Blues
TTITLE0=(I Got) A Good 'Un
TTITLE1=House Rent Boogie
TTITLE2=Kick Hit 4 Hit Kix U
TTITLE3=Standin' At The Crossroads
TTITLE4=Pots On, Gas On High
TTITLE5=We Might As Well Call It Through
TTITLE6=Doin' The Shout
TTITLE7=A Sheep Out On The Foam
TTITLE8=I Don't Need No Steam Heat
TTITLE9=Sittin' In My Dark Room
TTITLE10=Endless Boogie, parts 27 and 28
EXTD=
EXTT0=
EXTT1=
EXTT2=(Blues for Jimi and Janis)
EXTT3=
EXTT4=
EXTT5=(I Didn't Get Married To Your Two-Timing Mother)
EXTT6=
EXTT7=
EXTT8=
EXTT9=
EXTT10=
PLAYORDER=
